<?xml version="1.0" encoding="UTF-8"?>
<svg width="38px" height="34px" viewBox="0 0 38 34" version="1.1" xmlns="http://www.w3.org/2000/svg" xmlns:xlink="http://www.w3.org/1999/xlink">
    <title>PayPAI-icon</title>
    <g id="页面-1" stroke="none" stroke-width="1" fill="none" fill-rule="evenodd">
        <g id="画板" transform="translate(-18, -15)" fill="#ffffff" fill-rule="nonzero">
            <g id="robot-one" transform="translate(18, 15)">
                <path d="M19,0 C20.7079043,0 22.0926053,1.36600721 22.0926053,3.05129567 C22.0926053,4.26867548 21.3700878,5.31940625 20.3251538,5.80905529 L20.3251124,10.4615385 L30.4893457,10.4615385 C32.1798993,10.4615385 33.5535853,11.8004519 33.5808744,13.4623654 L33.5812885,13.5128341 L33.5812885,30.9487043 C33.5812885,32.6170337 32.224539,33.9726611 30.5404868,33.9995913 L30.4893457,34 L7.5106543,34 C5.82010073,34 4.44641468,32.6610865 4.41912564,30.9991731 L4.41871155,30.9487043 L4.41871155,13.5128341 C4.41871155,11.8445048 5.77546101,10.4888774 7.45951324,10.4619471 L7.5106543,10.4615385 L17.6748876,10.4615385 L17.6748876,5.80905529 C16.6444057,5.3261899 15.9274784,4.29764904 15.9078088,3.10172356 L15.9073947,3.05129567 C15.9073947,1.36600721 17.2921372,0 19,0 Z M30.4893457,13.0769231 L7.5106543,13.0769231 C7.27064331,13.0769231 7.07531346,13.2658438 7.06893636,13.5012284 L7.06893636,13.5128341 L7.06893636,30.9487043 C7.06893636,31.1855601 7.26037369,31.3783221 7.49889392,31.3846154 L7.5106543,31.3846154 L30.4893457,31.3846154 C30.7293567,31.3846154 30.9246865,31.1956947 30.9310636,30.9603101 L30.9310636,30.9487043 L30.9310636,13.5128341 C30.9310636,13.2720962 30.7332906,13.0769231 30.4893457,13.0769231 Z M22.5349444,23.9743726 L22.5642211,23.9745769 C23.5269153,23.9899832 24.3024787,24.7645865 24.3024787,25.7179351 C24.3024787,26.6809279 23.5111381,27.4615385 22.5349858,27.4615385 L15.4650142,27.4615385 L15.4357789,27.4612933 C14.4730847,27.4459279 13.6975213,26.6712837 13.6975213,25.717976 C13.6975213,24.7549832 14.4888619,23.9743726 15.4650142,23.9743726 L22.5349858,23.9743726 L22.5349444,23.9743726 Z M1.32511241,17.4359111 C2.04961761,17.4359111 2.63834021,18.0097019 2.65001776,18.7219447 L2.65022481,18.7436034 L2.65022481,25.7179351 C2.65022481,26.440149 2.05694714,27.0256274 1.32511241,27.0256274 C0.600565788,27.0256274 0.0118846019,26.4518365 0.000165639051,25.7395937 L0,25.7179351 L0,18.7436034 C0,18.0213894 0.59327767,17.4359111 1.32511241,17.4359111 L1.32511241,17.4359111 Z M36.6748876,17.4359111 C37.3994342,17.4359111 37.9881154,18.0097019 37.9998344,18.7219447 L38,18.7436034 L38,25.7179351 C38,26.440149 37.4067223,27.0256274 36.6748876,27.0256274 C35.9503824,27.0256274 35.3616598,26.4518365 35.3499822,25.7395937 L35.3497752,25.7179351 L35.3497752,18.7436034 C35.3497752,18.0213894 35.9430529,17.4359111 36.6748876,17.4359111 L36.6748876,17.4359111 Z M12.8137956,17 C13.7899893,17 14.5813299,17.7806514 14.5813299,18.7436034 C14.5813299,19.7065553 13.7899893,20.4871659 12.813837,20.4871659 C11.8376846,20.4871659 11.0463441,19.7065553 11.0463441,18.7436034 C11.0463441,17.7806514 11.8376846,17 12.813837,17 L12.8137956,17 Z M25.1862459,17 C26.1623982,17 26.9537388,17.7806514 26.9537388,18.7436034 C26.9537388,19.7065553 26.1623982,20.4871659 25.1862459,20.4871659 C24.2100935,20.4871659 23.418753,19.7065553 23.418753,18.7436034 C23.418753,17.7806514 24.2100935,17 25.1862459,17 L25.1862459,17 Z M19,2.61538462 C18.7555582,2.61538462 18.5576195,2.81063942 18.5576195,3.05129567 C18.5576195,3.29191106 18.7555582,3.48716587 19,3.48716587 C19.2444418,3.48716587 19.4423805,3.29191106 19.4423805,3.05129567 C19.4423805,2.81063942 19.2444418,2.61538462 19,2.61538462 Z" id="形状"></path>
            </g>
        </g>
    </g>
</svg>