<?xml version="1.0" encoding="UTF-8"?>
<svg width="60px" height="60px" viewBox="0 0 60 60" version="1.1" xmlns="http://www.w3.org/2000/svg" xmlns:xlink="http://www.w3.org/1999/xlink">
    <title>gas-free</title>
    <g id="gas-free" stroke="none" stroke-width="1" fill="none" fill-rule="evenodd">
        <g id="首页-没点击" transform="translate(13, 8)" fill="#ffffff" fill-rule="nonzero">
            <path d="M17.7208179,4 L10.2794393,4 C9.02350571,4 8,4.94529051 8,6.10544888 L8,9.89455112 C8,11.0546293 9.02350571,12 10.2794393,12 L17.7208179,12 C18.9764086,12 20,11.0546293 20,9.89455112 L20,6.10544888 C20,4.94529046 18.9764086,4 17.7208179,4 L17.7208179,4 Z M18.1773573,9.89463131 C18.1773573,10.1281869 17.9734793,10.3165071 17.7208179,10.3165071 L10.2794393,10.3165071 C10.0265207,10.3165071 9.82272838,10.1281869 9.82272838,9.89463131 L9.82272838,6.10552912 C9.82272838,5.87189336 10.0265207,5.68357312 10.2794393,5.68357312 L17.7208179,5.68357312 C17.9734793,5.68357312 18.1773573,5.87189332 18.1773573,6.10552912 L18.1773573,9.89463131 Z" id="形状"></path>
            <path d="M36.2565794,7.85882364 L33.3814445,5.43904531 C33.0058634,5.12452849 32.4104906,5.13193446 32.0475147,5.46102681 C31.6886222,5.79043435 31.6970552,6.31208161 32.0729026,6.63030139 L34.9477712,9.05007977 C35.6865057,9.67170747 36.1086905,10.5411984 36.1086905,11.4366101 L36.1086905,25.799755 C36.1086905,26.2548275 35.6865057,26.6286707 35.1631245,26.6286707 L32.2923393,26.6286707 C31.7728638,26.6286707 31.3465957,26.2586092 31.3465957,25.799755 L31.3465957,12.4170327 C31.3465957,11.0480337 30.0760469,9.93438256 28.5138036,9.93438256 L25.8035124,9.93438256 L25.8035124,4.13662106 C25.8035124,1.85739832 23.6883278,0 21.0834941,0 L7.48516861,0 C4.88450703,0 2.76515031,1.85361654 2.76515031,4.13662106 L2.76515031,31.3423261 L0.945743573,31.3423261 C0.426268166,31.3423261 0,31.7123089 0,32.1712419 C0,32.6298597 0.422184753,33 0.945743573,33 L27.6779559,33 C28.1972538,33 28.6234331,32.6299385 28.6234331,32.1712419 C28.6234331,31.7123877 28.2012484,31.3423261 27.6779559,31.3423261 L25.8076846,31.3423261 L25.8076846,11.5881959 L28.5179757,11.5881959 C29.0372736,11.5881959 29.4637192,11.9581786 29.4637192,12.4170327 L29.4637192,25.8035368 C29.4637192,27.1724571 30.7343568,28.2862658 32.2965114,28.2862658 L35.1672078,28.2862658 C36.7293624,28.2862658 38,27.172457 38,25.8035368 L38,11.4366101 C37.9958279,10.0934531 37.3625507,8.79095 36.2565794,7.85882364 Z M23.9206359,31.3423261 L4.65645984,31.3423261 L4.65645984,4.13662106 C4.65645984,2.76762201 5.92727498,1.65397084 7.48951829,1.65397084 L21.0919272,1.65397084 C22.6540817,1.65397084 23.9247193,2.76754318 23.9247193,4.13662106 L23.9247193,31.3423261 L23.9206359,31.3423261 Z" id="形状"></path>
        </g>
        <text id="free" font-family="PingFangSC-Semibold, PingFang SC" font-size="15" font-weight="500" fill="#ffffff">
            <tspan x="16" y="55">free</tspan>
        </text>
    </g>
</svg>