<?xml version="1.0" standalone="no"?><!DOCTYPE svg PUBLIC "-//W3C//DTD SVG 1.1//EN" "http://www.w3.org/Graphics/SVG/1.1/DTD/svg11.dtd"><svg t="1742288674371" class="icon" viewBox="0 0 1024 1024" version="1.1" xmlns="http://www.w3.org/2000/svg" p-id="10388" xmlns:xlink="http://www.w3.org/1999/xlink" width="200" height="200"><path d="M618.410667 85.333333a115.946667 115.946667 0 0 1 115.946666 114.026667v199.189333h47.936a52.693333 52.693333 0 0 1 52.693334 51.221334V716.736a28.757333 28.757333 0 0 0 57.472 1.152l0.021333-1.152V352.917333a5.269333 5.269333 0 0 0-1.258667-3.413333l-0.426666-0.448-82.048-75.776a31.616 31.616 0 0 1 41.898666-47.36l1.002667 0.896 82.048 75.776a68.522667 68.522667 0 0 1 22.016 48.426667l0.021333 1.898666v363.818667a91.989333 91.989333 0 0 1-183.978666 1.706667v-256.64h-37.376v408.853333h52.693333a31.616 31.616 0 0 1 1.194667 63.210667l-1.194667 0.021333H91.349333a31.616 31.616 0 0 1-1.173333-63.210667l1.173333-0.021333h52.693334V201.28a115.946667 115.946667 0 0 1 114.048-115.925333l1.92-0.021334h358.4z m0 63.253334h-358.4a52.693333 52.693333 0 0 0-52.693334 51.221333v670.848h463.786667V201.28a52.693333 52.693333 0 0 0-51.2-52.693333h-1.493333zM575.36 213.333333c23.914667 0 43.306667 18.688 43.306667 41.728v151.210667c0 23.04-19.392 41.728-43.306667 41.728H299.306667c-23.914667 0-43.306667-18.688-43.306667-41.728v-151.210667c0-23.04 19.392-41.728 43.306667-41.728h276.053333zM554.666667 277.333333H320v106.666667h234.666667v-106.666667z" fill="#ffffff" p-id="10389"></path></svg>