<?xml version="1.0" encoding="UTF-8"?>
<svg width="60px" height="60px" viewBox="0 0 60 60" version="1.1" xmlns="http://www.w3.org/2000/svg" xmlns:xlink="http://www.w3.org/1999/xlink">
    <title>payment</title>
    <g id="payment" stroke="none" stroke-width="1" fill="none" fill-rule="evenodd">
        <g id="编组" transform="translate(5, 7)" fill="#FFFFFF">
            <path d="M23.448144,4.27383506 C12.8527735,4.27383506 4.26282497,12.8826848 4.26282497,23.5017228 C4.26282497,34.1207609 12.8527735,42.7296106 23.448144,42.7296106 C26.6874044,42.7296106 29.7337689,41.9272833 32.4047685,40.5096636 L34.2885444,39.5098134 L36.2818018,43.2872194 L34.3980259,44.2853216 C31.0223259,46.0736848 27.2634271,47.0055681 23.448144,46.999975 C10.4980537,46.999975 0,36.4787991 0,23.4999749 C0,10.5211506 10.4980537,0 23.448144,0 C36.3982344,0 46.8962881,10.5211506 46.8962881,23.4999749 C46.8962881,26.6271286 46.28632,29.6161912 45.1758654,32.3500472 L45.135896,32.4479346 L50,34.5210505 L39.8408175,39.4993255 L36.375643,28.7107324 L41.21368,30.7733604 L41.2275824,30.7366526 C42.1329765,28.5044697 42.6334631,26.0607799 42.6334631,23.4964789 C42.6334631,12.8774408 34.0435145,4.26859109 23.448144,4.26859109 L23.448144,4.27383506 Z" id="形状" fill-rule="nonzero"></path>
            <text id="$" font-family="PingFangSC-Regular, PingFang SC" font-size="30" font-weight="normal">
                <tspan x="15" y="34">$</tspan>
            </text>
        </g>
    </g>
</svg>